<svg xmlns="http://www.w3.org/2000/svg" width="162" height="194" viewBox="0 0 162 194">
	<g>
		<g>
			<path fill="#263238" d="M0 0h11v11H0zm17 0h11v11H17zm0 66h11v11H17zm117 0h11v11h-11zM34 0h11v11H34zm17 0h11v11H51zm16 0h11v11H67zm17 0h11v11H84zm17 0h11v11h-11zm16 0h11v11h-11zM34 17h11v11H34zm17 0h11v11H51zm16 0h11v11H67zm17 0h11v11H84zm17 0h11v11h-11zm16 0h11v11h-11zM34 34h11v11H34zm17 0h11v11H51zm16 0h11v11H67zm17 0h11v11H84zm17 0h11v11h-11zm16 0h11v11h-11zM34 50h11v11H34zm17 0h11v11H51zm16 0h11v11H67zm17 0h11v11H84zm17 0h11v11h-11zm16 0h11v11h-11zM34 66h11v11H34zm17 0h11v11H51zm16 0h11v11H67zm17 0h11v11H84zm17 0h11v11h-11zm16 0h11v11h-11zM34 83h11v11H34zm17 0h11v11H51zm16 0h11v11H67zm17 0h11v11H84zm17 0h11v11h-11zm16 0h11v11h-11zm17-83h11v11h-11zm17 0h11v11h-11zM0 17h11v11H0zm0 16h11v11H0zm0 17h11v11H0zm51 116h11v11H51zm0-66h11v11H51zm50 0h11v11h-11zm0 66h11v11h-11zm0 17h11v11h-11zm16 0h11v11h-11zm-66 0h11v11H51zm-17 0h11v11H34zM151 17h11v11h-11zm0 16h11v11h-11zm0 17h11v11h-11zm-84 50h11v11H67zm0 16h11v11H67zm0 17h11v11H67zm17-33h11v11H84zm0 16h11v11H84zm0 17h11v11H84zm-17 17h11v11H67zm0 16h11v11H67zm0 17h11v11H67zm17-33h11v11H84zm0 16h11v11H84zm0 17h11v11H84z"/>
		</g>
	</g>
</svg>