<?xml version="1.0" standalone="no"?>
<!DOCTYPE svg PUBLIC "-//W3C//DTD SVG 20010904//EN"
 "http://www.w3.org/TR/2001/REC-SVG-20010904/DTD/svg10.dtd">
<svg version="1.0" xmlns="http://www.w3.org/2000/svg"
 width="60px" height="60px" viewBox="0 0 600.000000 600.000000"
 preserveAspectRatio="xMidYMid meet">

<g transform="translate(0.000000,600.000000) scale(0.100000,-0.100000)"
fill="#000000" stroke="none">
<path d="M1446 5609 c-22 -11 -62 -38 -90 -58 -28 -21 -121 -86 -206 -146 -85
-60 -216 -152 -290 -205 -74 -53 -271 -192 -436 -309 -184 -130 -306 -222
-313 -237 -17 -38 -15 -2120 2 -2154 7 -14 82 -75 167 -136 142 -101 900 -638
1400 -992 113 -80 231 -164 262 -186 31 -23 137 -98 235 -167 98 -69 304 -215
458 -324 321 -229 341 -241 376 -232 15 4 73 40 130 80 570 404 765 541 1084
768 143 102 377 268 520 369 143 101 289 204 325 230 36 26 175 125 310 220
135 96 296 210 358 254 63 44 122 91 133 104 18 24 19 57 19 1084 0 946 -2
1063 -16 1086 -13 23 -126 106 -453 336 -147 103 -745 526 -810 573 -87 63
-112 71 -155 51 -17 -9 -121 -79 -231 -157 -110 -79 -255 -181 -323 -229 -68
-48 -149 -105 -180 -128 -31 -22 -139 -98 -240 -170 -100 -71 -244 -173 -320
-227 -75 -55 -145 -103 -154 -108 -13 -7 -95 46 -380 249 -1147 816 -1098 782
-1130 782 -7 0 -31 -9 -52 -21z"/>
</g>
</svg>
