<svg xmlns="http://www.w3.org/2000/svg" class="svg-icon" style="vertical-align:middle;fill:currentColor;overflow:hidden" viewBox="0 0 1024 1024">
  <path d="M698.026667 597.333333C701.44 569.173333 704 541.013333 704 512c0-29.013333-2.56-57.173333-5.973333-85.333333H842.24C849.066667 453.973333 853.333333 482.56 853.333333 512c0 29.44-4.266666 58.026667-11.093333 85.333333M622.506667 834.56c25.6-47.36 45.226666-98.56 58.88-151.893333h125.866666c-40.96 70.4-106.24 125.013333-184.746666 151.893333M611.84 597.333333H412.16c-4.266667-28.16-6.826667-56.32-6.826667-85.333333 0-29.013333 2.56-57.6 6.826667-85.333333h199.68c3.84 27.733333 6.826667 56.32 6.826667 85.333333 0 29.013333-2.986667 57.173333-6.826667 85.333333M512 851.626667c-35.413333-51.2-64-107.946667-81.493333-168.96h162.986666C576 743.68 547.413333 800.426667 512 851.626667M341.333333 341.333333H216.746667c40.533333-70.826666 106.24-125.44 184.32-151.893333-25.6 47.36-44.8 98.56-59.733334 151.893333M216.746667 682.666667h124.586666C356.266667 736 375.466667 787.2 401.066667 834.56c-78.08-26.88-143.786667-81.493333-184.32-151.893333M181.76 597.333333C174.933333 570.026667 170.666667 541.44 170.666667 512c0-29.44 4.266666-58.026667 11.093333-85.333333h144.213333C322.56 454.826667 320 482.986667 320 512c0 29.013333 2.56 57.173333 5.973333 85.333333M512 171.946667c35.413333 51.2 64 108.373333 81.493333 169.386666H430.506667C448 280.32 476.586667 223.146667 512 171.946667m295.253333 169.386666H681.386667C667.733333 288 648.106667 236.8 622.506667 189.44c78.506666 26.88 143.786666 81.066667 184.746666 151.893333M512 85.333333c-235.946667 0-426.666667 192-426.666667 426.666667C85.333333 747.52 276.48 938.666667 512 938.666667S938.666667 747.52 938.666667 512 747.52 85.333333 512 85.333333Z"/>
</svg>